<svg xmlns="http://www.w3.org/2000/svg" width="30.887" height="30.715" viewBox="0 0 30.887 30.715">
  <g id="Grupo_199" data-name="Grupo 199" transform="translate(0.014 0.011)">
    <path id="Caminho_187" data-name="Caminho 187" d="M29.129,15.953c.358,0,.679-.016,1,0a.745.745,0,0,1,.746.749.737.737,0,0,1-.791.7c-.171.007-.342,0-.513,0h-.44v.362q0,2.384,0,4.767a4.63,4.63,0,0,1-3.55,4.65c-.048.013-.093.034-.149.056a2.408,2.408,0,0,1-.768,2.995,2.3,2.3,0,0,1-2.633.1,2.378,2.378,0,0,1-.965-2.991H9.722A2.386,2.386,0,0,1,8.61,30.418a2.36,2.36,0,0,1-2.576-.24,2.437,2.437,0,0,1-.691-2.9,10.5,10.5,0,0,1-1.17-.457,4.56,4.56,0,0,1-2.584-4.271c-.009-1.579,0-3.158,0-4.737V17.4c-.329,0-.627.017-.924,0a.709.709,0,0,1-.083-1.409,2.27,2.27,0,0,1,.448-.035q13.108,0,26.216,0h.428v-.343c0-3.359.01-6.717-.009-10.076a8.8,8.8,0,0,0-.208-1.911,2.66,2.66,0,0,0-2.91-2.173,3.06,3.06,0,0,0-3,2.59c-.042.225.022.285.232.341a3.572,3.572,0,0,1,2.582,2.312,2.459,2.459,0,0,1,.1.972,1.056,1.056,0,0,1-.9.9,1.28,1.28,0,0,1-.24.025c-1.659,0-3.319.022-4.977-.009a1.276,1.276,0,0,1-1.235-1.8,3.168,3.168,0,0,1,.236-.553,3.663,3.663,0,0,1,2.413-1.85A.349.349,0,0,0,20.081,4,4.536,4.536,0,0,1,24.128.007a4.624,4.624,0,0,1,3.1.735A4.41,4.41,0,0,1,29,3.85a11.826,11.826,0,0,1,.127,1.741c.011,3.318.005,6.637.005,9.956C29.129,15.666,29.129,15.785,29.129,15.953Zm-1.455,1.478H3.07c-.008.069-.019.119-.019.168,0,1.719-.016,3.439.015,5.157a2.993,2.993,0,0,0,.278,1.219,3.186,3.186,0,0,0,3.1,1.887q8.943-.01,17.885,0c.121,0,.241,0,.361-.01a3.139,3.139,0,0,0,2.925-2.692,17.312,17.312,0,0,0,.056-1.956C27.679,19.955,27.674,18.709,27.674,17.431ZM22.947,7.123a2.328,2.328,0,0,0-2.3-1.423,2.2,2.2,0,0,0-2.057,1.423ZM8.438,28.306a.912.912,0,0,0-.913-.918.923.923,0,1,0-.02,1.846A.911.911,0,0,0,8.438,28.306Zm15.752.008a.924.924,0,1,0-.91.918A.913.913,0,0,0,24.19,28.314Z" transform="translate(0 0)" fill="#b1b1b1"/>
    <path id="Caminho_188" data-name="Caminho 188" d="M330.9,226.346c0-.619.385-.976.884-.822a.907.907,0,0,1,.453,1.215.673.673,0,0,1-.857.446C331.047,227.081,330.9,226.822,330.9,226.346Z" transform="translate(-310.949 -211.895)" fill="#b1b1b1"/>
    <path id="Caminho_189" data-name="Caminho 189" d="M332.017,191.334a.738.738,0,0,1-.507.8.654.654,0,0,1-.774-.308,1.032,1.032,0,0,1,0-.983.648.648,0,0,1,.745-.314A.741.741,0,0,1,332.017,191.334Z" transform="translate(-310.68 -179.019)" fill="#b1b1b1"/>
    <path id="Caminho_190" data-name="Caminho 190" d="M330.9,157.462c0-.6.412-.957.914-.786a.886.886,0,0,1,.421,1.15.681.681,0,0,1-.871.429A.727.727,0,0,1,330.9,157.462Z" transform="translate(-310.949 -147.194)" fill="#b1b1b1"/>
    <path id="Caminho_191" data-name="Caminho 191" d="M365.7,159.328a.866.866,0,0,1,.751.933.7.7,0,0,1-.7.679A.886.886,0,0,1,365,160,.69.69,0,0,1,365.7,159.328Z" transform="translate(-342.991 -149.726)" fill="#b1b1b1"/>
    <path id="Caminho_192" data-name="Caminho 192" d="M275.2,224.46a.7.7,0,0,1,.691.661.9.9,0,0,1-.77.957.708.708,0,0,1-.69-.694A.887.887,0,0,1,275.2,224.46Z" transform="translate(-257.884 -210.929)" fill="#b1b1b1"/>
    <path id="Caminho_193" data-name="Caminho 193" d="M299.464,160.006a.877.877,0,0,1-.753.935.71.71,0,0,1-.7-.682.88.88,0,0,1,.76-.93A.676.676,0,0,1,299.464,160.006Z" transform="translate(-280.043 -149.726)" fill="#b1b1b1"/>
    <path id="Caminho_194" data-name="Caminho 194" d="M286.56,192.2a.833.833,0,0,1,.784-.9.686.686,0,0,1,.668.7.861.861,0,0,1-.789.9A.686.686,0,0,1,286.56,192.2Z" transform="translate(-269.284 -179.774)" fill="#b1b1b1"/>
    <path id="Caminho_195" data-name="Caminho 195" d="M388.719,225.14a.684.684,0,0,1,.674-.671.894.894,0,0,1,.782.944.718.718,0,0,1-.714.674A.887.887,0,0,1,388.719,225.14Z" transform="translate(-365.28 -210.937)" fill="#b1b1b1"/>
    <path id="Caminho_196" data-name="Caminho 196" d="M376.68,191.958a.674.674,0,0,1,.691-.679.876.876,0,0,1,.764.926.708.708,0,0,1-.7.682A.861.861,0,0,1,376.68,191.958Z" transform="translate(-353.967 -179.75)" fill="#b1b1b1"/>
  </g>
</svg>
