<svg xmlns="http://www.w3.org/2000/svg" width="38.508" height="27.715" viewBox="0 0 38.508 27.715">
  <path id="Caminho_202" data-name="Caminho 202" d="M27.812,23.349H9.175c0,.414,0,.817,0,1.221A1.444,1.444,0,0,1,7.529,26.2c-.989,0-1.977,0-2.965,0a1.421,1.421,0,0,1-1.551-1.551c0-1.073.006-2.146-.009-3.219A.705.705,0,0,0,2.827,21a6.509,6.509,0,0,1-.485-8.528c.042-.056.078-.116.156-.233-.335,0-.616,0-.9,0a1,1,0,0,1-1.108-.912c-.16-.766-.312-1.533-.468-2.3A.966.966,0,0,1,1.065,7.752c1.049-.005,2.1-.011,3.146.006a.4.4,0,0,0,.447-.3A18.405,18.405,0,0,1,6.682,3.475,5.518,5.518,0,0,1,9.007,1.643,19.083,19.083,0,0,1,14.548.232,32.447,32.447,0,0,1,21.692.15a22.509,22.509,0,0,1,5.833,1.29A6.222,6.222,0,0,1,31,4.576c.475.945.9,1.916,1.327,2.884a.413.413,0,0,0,.451.3c1.036-.015,2.073-.009,3.109-.006a.976.976,0,0,1,1.066,1.311c-.153.755-.3,1.51-.462,2.265a1,1,0,0,1-1.112.907c-.3,0-.6,0-.953,0,.086.125.139.213.2.291a6.519,6.519,0,0,1-.435,8.5.849.849,0,0,0-.209.529c-.02,1.024-.007,2.049-.01,3.074a1.429,1.429,0,0,1-1.57,1.569q-1.537.007-3.074,0a1.407,1.407,0,0,1-1.517-1.507C27.807,24.261,27.812,23.828,27.812,23.349ZM29.907,9.229c0-.054.02-.095.007-.122-.558-1.225-1.1-2.456-1.687-3.668a2.383,2.383,0,0,0-1.107-1.052A12.143,12.143,0,0,0,23.59,3.265a29.435,29.435,0,0,0-8.175-.283A17.646,17.646,0,0,0,10.465,4.1,3.407,3.407,0,0,0,8.52,5.825C8.028,6.9,7.562,7.979,7.089,9.058a.553.553,0,0,0-.012.173Zm1.9,7.568a2.789,2.789,0,1,0-2.785,2.776A2.805,2.805,0,0,0,31.81,16.8ZM8.127,19.562A2.784,2.784,0,0,0,7.912,14a2.784,2.784,0,1,0,.215,5.564Z" transform="translate(0.762 0.758)" fill="none" stroke="#b1b1b1" stroke-width="1.5"/>
</svg>
