<svg xmlns="http://www.w3.org/2000/svg" width="29.725" height="26.215" viewBox="0 0 29.725 26.215">
  <g id="Grupo_180" data-name="Grupo 180" transform="translate(-0.006 -0.004)">
    <path id="Caminho_172" data-name="Caminho 172" d="M5.313,14.163H4.948q-1.96,0-3.919,0A.907.907,0,0,1,.072,13.6.917.917,0,0,1,.41,12.523Q7.285,6.426,14.161.332A.938.938,0,0,1,15.6.346q1.718,1.521,3.432,3.043c.077.069.156.134.278.237.008-.149.016-.242.017-.334,0-.406-.008-.813.006-1.219a.845.845,0,0,1,.885-.876q1.757-.014,3.513,0a.863.863,0,0,1,.9.951q.005,2.961,0,5.923a.56.56,0,0,0,.21.471c1.5,1.317,2.984,2.643,4.478,3.964a.961.961,0,0,1,.406.906.879.879,0,0,1-.953.75c-1.326.005-2.652,0-3.977,0h-.358v.392q0,5.226,0,10.452a3.041,3.041,0,0,1-.019.405.856.856,0,0,1-.9.772.871.871,0,0,1-.856-.822c-.009-.1-.005-.193-.005-.29V13.518c0-.813.3-1.117,1.122-1.117h2.719c-.111-.111-.177-.183-.25-.247-.941-.835-1.872-1.682-2.83-2.5a1.453,1.453,0,0,1-.56-1.229c.024-1.693.009-3.387.009-5.08V2.98H21.088V4.517c0,.348,0,.7,0,1.045a.866.866,0,0,1-.534.857.881.881,0,0,1-.993-.192L16.606,3.609,14.87,2.071,3.251,12.373c.121.013.19.028.258.028.832,0,1.665,0,2.5,0,.759,0,1.079.318,1.083,1.07,0,.087,0,.173,0,.306H14.58a2.566,2.566,0,0,1,.347.017.432.432,0,0,1,.409.447.442.442,0,0,1-.382.474,1.408,1.408,0,0,1-.318.017H7.105v.953h3.645c.087,0,.175,0,.261,0,.321.03.505.213.5.49a.472.472,0,0,1-.523.465c-.91.007-1.82,0-2.729,0H7.108v.935c.1.005.2.015.3.015h3.281c.068,0,.135,0,.2,0,.412.009.625.177.621.488s-.218.474-.633.474H7.111v.948h.35q3.571,0,7.142,0a1.788,1.788,0,0,1,.374.032.425.425,0,0,1,.361.43.432.432,0,0,1-.348.47,1.481,1.481,0,0,1-.373.032q-3.571,0-7.142,0H7.108v.948h3.638c.077,0,.155,0,.232,0,.341.023.536.2.531.49s-.206.47-.549.473c-1.055.007-2.11,0-3.164,0H7.109v.945h.3q1.7,0,3.4,0a1.5,1.5,0,0,1,.372.039.462.462,0,0,1,.016.883,1.351,1.351,0,0,1-.372.043c-1.229,0-2.457,0-3.709,0v.945h.321q3.586,0,7.171,0a1.544,1.544,0,0,1,.4.04.461.461,0,0,1-.016.89,1.79,1.79,0,0,1-.4.035q-4.05,0-8.1,0c-.816,0-1.173-.352-1.173-1.161q0-5.24,0-10.48Z" fill="#b1b1b1"/>
  </g>
</svg>
