<svg xmlns="http://www.w3.org/2000/svg" width="33.223" height="29.486" viewBox="0 0 33.223 29.486">
  <g id="Grupo_201" data-name="Grupo 201" transform="translate(0.748 0.751)">
    <path id="Caminho_203" data-name="Caminho 203" d="M70.14,6.824a9.981,9.981,0,0,1,1.9-2.836,12.551,12.551,0,0,1,7.37-3.8,13.544,13.544,0,0,1,9.16,1.661,11.009,11.009,0,0,1,4.514,4.8c.027.055.05.112.069.155a14.005,14.005,0,0,0-4.088,3.823,17.79,17.79,0,0,0-2.488,3.906.331.331,0,0,1-.352.216q-4.569-.008-9.137,0a.353.353,0,0,1-.373-.235A22.98,22.98,0,0,0,71.48,7.669a4.325,4.325,0,0,0-.642-.482C70.623,7.05,70.384,6.948,70.14,6.824Z" transform="translate(-65.793 0)" fill="none" stroke="#b1b1b1" stroke-width="1.5"/>
    <path id="Caminho_204" data-name="Caminho 204" d="M66.4,267.49H56.028a1.931,1.931,0,0,1-2.141-2.145q0-1.936,0-3.872a1.914,1.914,0,0,1,2.056-2.079q10.467-.008,20.934,0a1.911,1.911,0,0,1,2.048,2.086q0,1.967,0,3.934a1.915,1.915,0,0,1-2.086,2.075Z" transform="translate(-50.546 -243.322)" fill="none" stroke="#b1b1b1" stroke-width="1.5"/>
    <path id="Caminho_205" data-name="Caminho 205" d="M9.547,135.046H9.02c-1.135,0-2.27.023-3.4-.006a3.426,3.426,0,0,0-2.92,1.25,1.564,1.564,0,0,1-.115-.178,16.909,16.909,0,0,0-1.849-3.1,3.078,3.078,0,0,1-.7-2.337,2.794,2.794,0,0,1,1.55-2.009,2.641,2.641,0,0,1,3.365.435,22.553,22.553,0,0,1,4.443,5.637C9.438,134.826,9.481,134.915,9.547,135.046Z" transform="translate(0 -120.305)" fill="none" stroke="#b1b1b1" stroke-width="1.5"/>
    <path id="Caminho_206" data-name="Caminho 206" d="M357.89,135.033a17.564,17.564,0,0,1,2.382-3.574c.742-.857,1.528-1.681,2.34-2.473a2.63,2.63,0,0,1,3.359-.273,2.88,2.88,0,0,1,1.429,1.895,2.738,2.738,0,0,1-.484,2.06,19.766,19.766,0,0,0-2.133,3.621c-.071-.066-.115-.1-.151-.141a3.207,3.207,0,0,0-2.49-1.116q-1.936,0-3.872,0Z" transform="translate(-335.718 -120.292)" fill="none" stroke="#b1b1b1" stroke-width="1.5"/>
    <path id="Caminho_207" data-name="Caminho 207" d="M87.6,414.6c-.1-.821-.2-1.619-.308-2.442h2.224l-.307,2.442Z" transform="translate(-81.881 -386.629)" fill="none" stroke="#b1b1b1" stroke-width="1.5"/>
    <path id="Caminho_208" data-name="Caminho 208" d="M390.707,414.51H389.1c-.1-.815-.206-1.627-.312-2.46h2.225C390.912,412.872,390.812,413.675,390.707,414.51Z" transform="translate(-364.704 -386.526)" fill="none" stroke="#b1b1b1" stroke-width="1.5"/>
  </g>
</svg>
