<svg xmlns="http://www.w3.org/2000/svg" width="31.808" height="27.897" viewBox="0 0 31.808 27.897">
  <g id="Grupo_200" data-name="Grupo 200" transform="translate(0.82 0.755)">
    <path id="Caminho_197" data-name="Caminho 197" d="M69.023,176.22a7.38,7.38,0,0,1,6.147,3.282c1.337,1.967,2.6,3.985,3.864,6a4.231,4.231,0,0,1-.218,5.042,4.119,4.119,0,0,1-4.067,1.611,5.57,5.57,0,0,1-1.265-.378,11.475,11.475,0,0,0-8.956.025,4.473,4.473,0,0,1-3.9-.08,4.368,4.368,0,0,1-2.272-4.512,4.869,4.869,0,0,1,.71-1.8c1.212-1.9,2.415-3.8,3.648-5.684A7.478,7.478,0,0,1,69.023,176.22Z" transform="translate(-54.856 -165.82)" fill="none" stroke="#b1b1b1" stroke-width="1.5"/>
    <path id="Caminho_198" data-name="Caminho 198" d="M136.6,4.855a5.04,5.04,0,0,1-1.625,3.753,3.605,3.605,0,0,1-5.082-.129,5.363,5.363,0,0,1-.111-7.26,3.668,3.668,0,0,1,5.677.256A5.378,5.378,0,0,1,136.6,4.855Z" transform="translate(-120.838 0)" fill="none" stroke="#b1b1b1" stroke-width="1.5"/>
    <path id="Caminho_199" data-name="Caminho 199" d="M286.328,29.473a3.687,3.687,0,0,1,3.508,2.666,5.421,5.421,0,0,1-2.225,6.19,3.7,3.7,0,0,1-5.625-2.206,5.4,5.4,0,0,1,2.558-6.207A3.68,3.68,0,0,1,286.328,29.473Z" transform="translate(-265.129 -27.737)" fill="none" stroke="#b1b1b1" stroke-width="1.5"/>
    <path id="Caminho_200" data-name="Caminho 200" d="M6.89,101.025a3.68,3.68,0,0,1-1.109,2.826,3.032,3.032,0,0,1-3.59.324A4.465,4.465,0,0,1,.136,99.284a3.056,3.056,0,0,1,4.885-1.769A4.432,4.432,0,0,1,6.89,101.025Z" transform="translate(0 -91.149)" fill="none" stroke="#b1b1b1" stroke-width="1.5"/>
    <path id="Caminho_201" data-name="Caminho 201" d="M390.941,168.875a4.408,4.408,0,0,1,3.816-4.271,3.011,3.011,0,0,1,3.324,2.877,4.432,4.432,0,0,1-3.524,4.55,3.006,3.006,0,0,1-3.616-3.038C390.94,168.953,390.941,168.914,390.941,168.875Z" transform="translate(-367.858 -154.871)" fill="none" stroke="#b1b1b1" stroke-width="1.5"/>
  </g>
</svg>
