<svg xmlns="http://www.w3.org/2000/svg" width="35.691" height="28.968" viewBox="0 0 35.691 28.968">
  <path id="Caminho_174" data-name="Caminho 174" d="M2.893,12.816V12.2c0-2.346-.009-4.693,0-7.039C2.909,2.553,4.119.554,5.956.1A3.442,3.442,0,0,1,6.788.019C14.159.015,21.53.041,28.9,0,30.893-.012,32.4,1.84,32.709,4a9.583,9.583,0,0,1,.079,1.306c.008,2.3,0,4.6,0,6.9v.573c.227.026.422.038.614.072,1.327.242,2.233,1.559,2.26,3.361q.04,2.533,0,5.067c-.029,2.008-1.122,3.4-2.657,3.429-.859.014-1.718,0-2.577,0h-.42c0,.9,0,1.752,0,2.607a6.169,6.169,0,0,1-.035.746c-.075.582-.384.92-.8.9s-.733-.429-.751-1.031c-.021-.718-.008-1.439-.008-2.158,0-.327,0-.655,0-1.022H7.261c0,.942,0,1.876,0,2.81a3.508,3.508,0,0,1-.045.649c-.095.483-.415.775-.785.75a.816.816,0,0,1-.705-.812c-.051-.539-.045-1.089-.052-1.635-.008-.577,0-1.155,0-1.8-.155,0-.289,0-.423,0-.986-.015-1.976.043-2.957-.065C.979,24.5.06,23.154.022,21.371q-.054-2.6,0-5.208c.039-1.9,1.072-3.238,2.5-3.347C2.628,12.81,2.731,12.816,2.893,12.816ZM17.838,14.96H2.76c-.82,0-1.155.455-1.156,1.566q0,2.3,0,4.6c0,.949.37,1.442,1.076,1.442q15.166,0,30.332,0c.7,0,1.065-.5,1.068-1.453,0-1.517,0-3.034,0-4.551,0-1.172-.322-1.6-1.2-1.6Zm.549-2.172c0-.628,0-1.219,0-1.811,0-1.8.728-2.777,2.068-2.778,2.542,0,5.083.041,7.625-.019,1.241-.029,2.193,1.1,2.107,2.844-.029.585,0,1.175,0,1.749h1.025v-.5q0-3.471,0-6.943c0-2.009-.865-3.186-2.351-3.187q-11.019,0-22.039,0c-1.464,0-2.334,1.185-2.336,3.159q0,3.519,0,7.037v.439H5.5c0-.645,0-1.254,0-1.862C5.51,9.2,6.246,8.2,7.513,8.2q3.882-.007,7.764,0c1.272,0,2.012,1,2.019,2.7,0,.621,0,1.242,0,1.887Zm-11.3,0h8.625c0-.612,0-1.2,0-1.79,0-.608-.041-.659-.5-.659H7.589c-.07,0-.158-.034-.2.01-.108.1-.274.236-.28.369C7.077,11.4,7.091,12.083,7.091,12.789Zm12.878,0h8.581a.449.449,0,0,0,.035-.106c0-.5.01-1,.011-1.5,0-.842,0-.843-.609-.843H22.14c-.592,0-1.184.01-1.775,0-.281-.007-.4.148-.4.526C19.975,11.486,19.969,12.111,19.969,12.788Z" transform="translate(0.005 0.001)" fill="#b1b1b1"/>
</svg>
