<svg xmlns="http://www.w3.org/2000/svg" width="22.168" height="27.715" viewBox="0 0 22.168 27.715">
  <g id="Grupo_198" data-name="Grupo 198" transform="translate(0 0)">
    <path id="Caminho_178" data-name="Caminho 178" d="M8.958,4.776a3.734,3.734,0,0,1,2.474-3.249,3.073,3.073,0,0,1,.817-.126c1.829-.009,3.659-.037,5.487.012a3.613,3.613,0,0,1,3.222,3.661c.008.153.008.306.008.46q0,10.664,0,21.326a.835.835,0,0,0,.291.747.579.579,0,0,0,.9-.473,2.641,2.641,0,0,0,.012-.324q0-10.677,0-21.354A5.409,5.409,0,0,0,19.857.716a3.951,3.951,0,0,0-2.3-.709c-1.75,0-3.5-.014-5.251,0A4.819,4.819,0,0,0,7.785,4.284c-.027.157-.043.317-.07.517-.467,0-.925-.03-1.379,0A5.386,5.386,0,0,0,1.592,9.19c-.054.215-.089.436-.135.665-.192.015-.38.018-.566.047A1.154,1.154,0,0,0,0,11.161,1.125,1.125,0,0,0,.985,12.3c.047,0,.095.006.142.006q7.131,0,14.262,0a1.045,1.045,0,0,0,1.036-.694A1.228,1.228,0,0,0,15.641,9.9c-.185-.031-.375-.032-.543-.045C14.293,6.192,12.184,4.608,8.958,4.776Z" transform="translate(0 0)" fill="#b1b1b1"/>
    <path id="Caminho_179" data-name="Caminho 179" d="M241.881,339.933c0-.333.006-.667,0-1a.715.715,0,0,0-.7-.743.707.707,0,0,0-.688.724q-.017,1.027,0,2.055a.695.695,0,1,0,1.387-.009C241.887,340.618,241.881,340.275,241.881,339.933Z" transform="translate(-230.994 -319.885)" fill="#b1b1b1"/>
    <path id="Caminho_180" data-name="Caminho 180" d="M292.541,259.057c0,.333,0,.667,0,1a.714.714,0,0,0,.687.752.706.706,0,0,0,.7-.738q.014-1.014,0-2.028a.716.716,0,0,0-.7-.744.724.724,0,0,0-.687.756C292.536,258.39,292.541,258.723,292.541,259.057Z" transform="translate(-285.489 -243.373)" fill="#b1b1b1"/>
    <path id="Caminho_181" data-name="Caminho 181" d="M292.554,423.965c0,.324,0,.649,0,.973a.7.7,0,1,0,1.388,0q.011-1,0-2a.711.711,0,0,0-.695-.745.72.72,0,0,0-.694.748c0,.018,0,.036,0,.054Q292.554,423.478,292.554,423.965Z" transform="translate(-285.502 -399.339)" fill="#b1b1b1"/>
    <path id="Caminho_182" data-name="Caminho 182" d="M185.324,259.057c0,.343-.007.685,0,1.027a.69.69,0,1,0,1.374-.021q0-1,0-2a.69.69,0,1,0-1.374-.007C185.317,258.389,185.324,258.723,185.324,259.057Z" transform="translate(-173.227 -243.383)" fill="#b1b1b1"/>
    <path id="Caminho_183" data-name="Caminho 183" d="M348,339.941c0,.343,0,.685,0,1.027a.708.708,0,0,0,.69.718.693.693,0,0,0,.679-.7q.017-1.054,0-2.109a.688.688,0,0,0-.7-.7.706.706,0,0,0-.669.738C348,339.256,348,339.6,348,339.941Z" transform="translate(-343.534 -319.872)" fill="#b1b1b1"/>
    <path id="Caminho_184" data-name="Caminho 184" d="M186.7,423.936c0-.343,0-.685,0-1.027a.705.705,0,0,0-.678-.73.689.689,0,0,0-.693.712q-.016,1.041,0,2.082a.693.693,0,0,0,.689.718.711.711,0,0,0,.683-.754C186.708,424.6,186.7,424.269,186.7,423.936Z" transform="translate(-173.231 -399.328)" fill="#b1b1b1"/>
    <path id="Caminho_185" data-name="Caminho 185" d="M400.175,423.949c0,.333,0,.667,0,1a.7.7,0,0,0,.675.731.694.694,0,0,0,.692-.713q.011-1.041,0-2.082a.692.692,0,0,0-.688-.717.7.7,0,0,0-.681.725c0,.018,0,.036,0,.054Q400.175,423.45,400.175,423.949Z" transform="translate(-397.842 -399.32)" fill="#b1b1b1"/>
    <path id="Caminho_186" data-name="Caminho 186" d="M401.564,259.069c0-.351.007-.7,0-1.054a.684.684,0,1,0-1.367,0q-.011,1.054,0,2.108a.683.683,0,1,0,1.367,0C401.571,259.772,401.564,259.42,401.564,259.069Z" transform="translate(-397.86 -243.381)" fill="#b1b1b1"/>
  </g>
</svg>
