<svg xmlns="http://www.w3.org/2000/svg" width="51.959" height="53.691" viewBox="0 0 51.959 53.691">
  <g id="Grupo_200" data-name="Grupo 200" transform="translate(-185 141.018)">
    <path id="Caminho_132" data-name="Caminho 132" d="M0,40.856V4.308A2.224,2.224,0,0,1,2.305,3.095c3.016.04,6.035.013,9.053.013H12.4c0-.357,0-.616,0-.878C12.4.739,12.926-.005,13.963-.014c1.052-.009,1.594.74,1.607,2.206,0,.282.031.561.048.856h8.8c0-.346-.009-.634,0-.923a5,5,0,0,1,.064-.874,1.551,1.551,0,0,1,3.076.247c.024.5,0,1,0,1.563.41.018.724.044,1.039.044q3.365.007,6.728,0c1.435,0,1.435,0,1.521-1.462a2.61,2.61,0,0,1,.031-.319A1.54,1.54,0,0,1,38.507-.016a1.506,1.506,0,0,1,1.453,1.431,3.6,3.6,0,0,1,.013.8c-.095.711.194.914.9.9,2.99-.035,5.982-.018,8.972-.013,1.605,0,2.114.509,2.116,2.1q0,17.384,0,34.769c0,1.565-.539,2.085-2.14,2.087-2.671,0-5.341.037-8.01-.02a1.246,1.246,0,0,0-1.475,1.072,15.013,15.013,0,0,1-28.754-.275.888.888,0,0,0-1.037-.79c-2.75.026-5.5-.022-8.252.029A2.191,2.191,0,0,1,0,40.856Zm37.884-2.239a11.889,11.889,0,1,0-11.845,11.9A11.886,11.886,0,0,0,37.884,38.616ZM3.243,12.778H40.462c2.51,0,5.02-.018,7.53.011.638.007.834-.216.823-.837q-.046-2.441,0-4.886c.013-.636-.22-.823-.843-.812-2.028.033-4.058.007-6.088.015a3.492,3.492,0,0,0-1.706.145c-.28.181-.159.975-.222,1.495a1.548,1.548,0,0,1-3.056.132,3,3,0,0,1-.051-.876c.07-.683-.161-.934-.889-.918-2.188.046-4.379.009-6.568.022a3.6,3.6,0,0,0-1.7.176c-.247.145-.1.938-.15,1.435a1.516,1.516,0,0,1-1.33,1.383A1.477,1.477,0,0,1,24.54,8.218a3.63,3.63,0,0,1-.119-1.185c.033-.59-.172-.79-.777-.782-2.215.031-4.432.013-6.647.013-1.358,0-1.358,0-1.433,1.374A1.584,1.584,0,1,1,12.4,7.6c-.015-.416,0-.834,0-1.273H3.243C3.243,8.471,3.243,10.547,3.243,12.778Z" transform="translate(185 -141)" fill="#233857"/>
    <g id="Grupo_199" data-name="Grupo 199">
      <path id="Caminho_133" data-name="Caminho 133" d="M114,140.641a25.5,25.5,0,0,1-.018,2.563,2.636,2.636,0,0,0,1.052,2.495,25.775,25.775,0,0,1,2.054,2.021,1.6,1.6,0,0,1,.128,2.292,1.571,1.571,0,0,1-2.345-.051c-1.165-1.136-2.338-2.272-3.432-3.474a2.377,2.377,0,0,1-.568-1.427c-.055-2.616-.037-5.236-.02-7.853a1.625,1.625,0,0,1,1.62-1.8,1.584,1.584,0,0,1,1.524,1.788C114,138.343,113.995,139.492,114,140.641Z" transform="translate(98.57 -246.609)" fill="#233857"/>
    </g>
  </g>
</svg>
