<svg xmlns="http://www.w3.org/2000/svg" width="58.883" height="45.865" viewBox="0 0 58.883 45.865">
  <g id="Grupo_93" data-name="Grupo 93" transform="translate(0 0.04)">
    <path id="Caminho_152" data-name="Caminho 152" d="M262.592,111.475c0,1.549-.014,3.1,0,4.649a5.077,5.077,0,0,1-1.425,3.8,3.784,3.784,0,0,1-2.116,1.2,17.951,17.951,0,0,1-2.289.173c-2.567.021-5.134.017-7.7,0a13.166,13.166,0,0,1-2.01-.135,4.51,4.51,0,0,1-3.339-2.439,5.277,5.277,0,0,1-.506-2.636c-.022-2.128.015-4.258-.016-6.386a3.794,3.794,0,0,0-1.263-3.012,2.924,2.924,0,0,0-.938-.594,1.023,1.023,0,0,1-.73-.77,4.305,4.305,0,0,1-.141-.689,12.2,12.2,0,0,0-1.317-4.213,25.134,25.134,0,0,0-1.567-2.807,15.716,15.716,0,0,0-3.336-3.524c-.863-.66-1.8-1.23-2.712-1.82-.284-.183-.334-.33-.086-.579,1.057-1.062,2.1-2.134,3.161-3.2,1.3-1.305,2.6-2.614,3.915-3.9a6.631,6.631,0,0,1,1.22-.929,1.86,1.86,0,0,1,2.024.479c1.879,1.87,3.747,3.752,5.623,5.624q2.864,2.858,5.736,5.708c1.753,1.75,3.5,3.511,5.25,5.263,1.157,1.156,2.326,2.3,3.48,3.458a3.188,3.188,0,0,1,1.087,2.389c-.034,1.627-.009,3.256-.009,4.884Z" transform="translate(-209.243 -75.716)" fill="#182849"/>
    <path id="Caminho_153" data-name="Caminho 153" d="M0,190.543A14.773,14.773,0,0,1,4.356,180.12a14.145,14.145,0,0,1,10.4-4.292,14.669,14.669,0,0,1-.045,29.339,13.948,13.948,0,0,1-10.321-4.279A14.846,14.846,0,0,1,0,190.543Zm7.334-3.181a2.389,2.389,0,0,0-2.328,2.1,2.684,2.684,0,0,0,.751,2.13c.671.678,1.335,1.364,2.02,2.029,1.221,1.186,2.44,2.375,3.693,3.527a2.3,2.3,0,0,0,2.545.025c.706-.585,1.387-1.2,2.04-1.849q2.9-2.864,5.765-5.763c.809-.819,1.587-1.672,2.344-2.539a2.659,2.659,0,0,0,.076-2.381,2.445,2.445,0,0,0-4-.348q-3.477,3.48-6.958,6.957c-.392.391-.626.4-1.03,0-1.049-1.033-2.075-2.089-3.145-3.1A2.454,2.454,0,0,0,7.334,187.362Z" transform="translate(0 -159.343)" fill="#182849"/>
    <path id="Caminho_154" data-name="Caminho 154" d="M204.03,9.518a6.145,6.145,0,0,0,.087-.7c.013-1.237.039-2.475.008-3.71a1.986,1.986,0,0,1,2.229-1.91,2.011,2.011,0,0,1,1.514,1.419,7.967,7.967,0,0,1,.1,1.167c.009,2.223.055,4.448-.019,6.669a2.689,2.689,0,0,0,.941,2.164c1.983,1.944,3.929,3.924,5.9,5.885,1.909,1.906,3.827,3.8,5.734,5.714a14.477,14.477,0,0,1,1.02,1.14,2.14,2.14,0,0,1-.2,1.656,3.916,3.916,0,0,1-1.01.849,2.032,2.032,0,0,1-2.3-.607q-3.763-3.774-7.521-7.553c-2.072-2.072-4.16-4.128-6.231-6.2-1.918-1.918-3.821-3.849-5.735-5.77q-2.278-2.285-4.568-4.557a.557.557,0,0,0-.867.008q-3.953,3.963-7.91,7.924-1.126,1.126-2.264,2.24a1.9,1.9,0,0,1-2.742.078,2.042,2.042,0,0,1-.08-2.718c1.025-1.025,2.03-2.07,3.053-3.1q2.179-2.187,4.37-4.363c1.547-1.541,3.05-3.129,4.658-4.6a1.673,1.673,0,0,1,2.671-.027c1.331,1.148,2.518,2.465,3.765,3.71Q200.814,6.506,203,8.691c.286.285.584.555.878.832C203.925,9.524,203.977,9.521,204.03,9.518Z" transform="translate(-162.754 0)" fill="#182849"/>
  </g>
</svg>
