<svg xmlns="http://www.w3.org/2000/svg" width="55.923" height="52.502" viewBox="0 0 55.923 52.502">
  <g id="Grupo_94" data-name="Grupo 94" transform="translate(-0.007)">
    <path id="Caminho_155" data-name="Caminho 155" d="M27.955,0h20.17c.828,0,.828,0,.828.809,0,7.2.021,14.4-.026,21.6a2.29,2.29,0,0,0,1.051,2.064,12.61,12.61,0,0,1,3.413,3.776,32.688,32.688,0,0,1,1.517,2.912A16.556,16.556,0,0,1,55.52,33.2c.112.376.245.744.354,1.121a1.641,1.641,0,0,1,.053.439c0,1.327.008,2.653-.008,3.98a2.129,2.129,0,0,1-.182.564,3.017,3.017,0,0,0-.153.509,14.614,14.614,0,0,1-1.589,4.51,1.047,1.047,0,0,0,.036.776c.329.759.7,1.5,1.083,2.236.22.427.479.835.734,1.242.128.2.115.335-.143.369a5.756,5.756,0,0,1-.712.056c-1.311.005-2.625.046-3.935-.014a2.644,2.644,0,0,0-1.883.63,11.48,11.48,0,0,1-3.554,1.9,20.645,20.645,0,0,1-4.22.9,14.181,14.181,0,0,1-5.775-.645,18.046,18.046,0,0,1-3.413-1.484c-.533-.286-1.007-.682-1.526-1a2.336,2.336,0,0,0-.727-.27,3.332,3.332,0,0,0-.669-.015q-14.11,0-28.219,0a4.911,4.911,0,0,1-.888-.071c-.077-.014-.2-.241-.17-.3.213-.38.494-.723.691-1.11.515-1.016.987-2.054,1.5-3.073s1.052-2.02,1.565-3.037c.36-.714.682-1.446,1.038-2.161s.738-1.416,1.1-2.128c.221-.436.442-.872.629-1.323.267-.647.465-.8,1.165-.8H23.748c.707,0,.785-.035.974-.716.207-.744.366-1.5.541-2.254.078-.332-.038-.522-.4-.516-.224,0-.447,0-.671,0H7.687c-.736,0-.742-.007-.742-.758V.751c0-.74.01-.75.753-.75Q17.824,0,27.955,0Zm.013,3.518H11.113c-.6,0-.664.045-.664.565q0,11.669-.007,23.338c0,.416.134.584.568.583q7.78-.015,15.558,0a1.025,1.025,0,0,0,.9-.477,10.988,10.988,0,0,1,.677-.883,14.851,14.851,0,0,1,5.211-4.017,19.146,19.146,0,0,1,2.858-1.095,19.626,19.626,0,0,1,3.345-.492,12.832,12.832,0,0,1,4.85.6c.982.311,1.037.318,1.037-.7q0-8.338,0-16.677c0-.732-.01-.742-.758-.742Q36.33,3.516,27.968,3.518ZM52.2,36.753a11.992,11.992,0,1,0-11.988,12A11.966,11.966,0,0,0,52.2,36.753Z" transform="translate(0)" fill="#182849"/>
    <path id="Caminho_156" data-name="Caminho 156" d="M370.809,338.036a5.153,5.153,0,0,1-.433.581Q366.2,342.811,362,347c-.369.369-.733.742-1.108,1.1a.551.551,0,0,1-.892,0q-3.086-3.077-6.165-6.161a.507.507,0,0,1,.015-.814c.876-.873,1.746-1.751,2.625-2.622.346-.343.6-.339.957.011.836.828,1.665,1.664,2.5,2.495.426.425.606.423,1.039-.01q2.957-2.953,5.911-5.91c.495-.495.624-.493,1.131.013.811.81,1.625,1.62,2.43,2.437A4.285,4.285,0,0,1,370.809,338.036Z" transform="translate(-322 -304.776)" fill="#182849"/>
  </g>
</svg>
