<svg xmlns="http://www.w3.org/2000/svg" width="1919.948" height="996.521" viewBox="0 0 1919.948 996.521">
  <path id="Caminho_117" data-name="Caminho 117" d="M1854.95,0h63c.15,1.686.41,3.373.42,5.069.14,28.086.32,56.173.36,84.269q.21,152.987.34,305.965.15,146.089.34,292.167a53.832,53.832,0,0,0,.54,5.5V996.522H2.01c-.27-15.474-.7-30.948-.76-46.422-.16-39.513-.14-79.036-.21-118.549Q.815,690.015.56,548.47C.51,522.417.27,496.355.23,470.3Q.02,322.374.01,174.435a12.3,12.3,0,0,1,2.96-7.522c13.24-14.615,26.76-28.965,40.12-43.468a36.51,36.51,0,0,0,3.42-5.233l1.77,1.472V250.661H61.89v-6.327c0-54.854.06-109.7-.11-164.552-.01-4.354,1.34-6.04,5.32-7.318C103.28,60.854,139.38,49,175.52,37.234c7.68-2.5,15.37-4.926,23.59-7.553V198.945H309.16V125.428h61.16V95.921H466V.02h76V135.27h37.94V191.7h51.04V103.811h55V154.8h27.28V59.177h20.51v-14.2H857.21V294.855h196.78V29.936h109.45V59.484h34.47V279.943h46.34V153.176h14.94v-49.9h41.22V73.987c2.91,1.4,5.13,2.433,7.32,3.516,25.88,12.868,51.72,25.828,77.68,38.522,3.41,1.666,4.45,3.567,4.44,7.308-.13,40.371-.08,80.733-.08,121.1v6.183h40.86V118.426h82.25v132.2h13.8V30.018h137.24V198.955h34.17V125.407h61.45V96.043h95.43C1854.95,63.623,1854.95,31.817,1854.95,0Z" transform="translate(-0.002)" fill="#f0f1f1"/>
</svg>
