<svg xmlns="http://www.w3.org/2000/svg" width="98" height="102.035" viewBox="0 0 98 102.035">
  <g id="Grupo_115" data-name="Grupo 115" transform="translate(1)">
    <g id="Grupo_114" data-name="Grupo 114" transform="translate(25.573 0)">
      <path id="Caminho_170" data-name="Caminho 170" d="M58.6,37.912v35.43c0,1.887-.531,2.42-2.414,2.42H2.426C.534,75.761,0,75.232,0,73.353V2.42C0,.532.531,0,2.414,0H56.179C58.071,0,58.6.53,58.6,2.408ZM29.139,72.3v-.907q0-12.389,0-24.778c0-1.626.6-2.222,2.235-2.222q5.806,0,11.611,0c1.889,0,2.435.54,2.435,2.41V72.3h9.7V3.472H3.469V72.3Zm3.457,0H41.95V47.854H32.6Z" transform="translate(0 0)" fill="#e83f40"/>
      <path id="Caminho_171" data-name="Caminho 171" d="M169.5,57.22c0,1.676.007,3.352,0,5.028-.009,1.581-.615,2.18-2.2,2.182q-3.807.007-7.615,0c-1.549,0-2.179-.6-2.183-2.126q-.018-5.139,0-10.278c0-1.532.632-2.142,2.164-2.145q3.845-.007,7.689,0c1.526,0,2.137.614,2.148,2.161C169.509,53.769,169.5,55.494,169.5,57.22Zm-8.5-3.88v7.6h5.017v-7.6Z" transform="translate(-134.195 -42.5)" fill="#e83f40"/>
      <path id="Caminho_172" data-name="Caminho 172" d="M157.492,182.257c0-1.7-.009-3.4,0-5.1.01-1.534.637-2.154,2.16-2.155q3.845-.007,7.689,0c1.518,0,2.148.626,2.152,2.161q.016,5.1,0,10.2c0,1.584-.612,2.185-2.2,2.188q-3.807.009-7.615,0c-1.581,0-2.183-.6-2.191-2.194C157.486,185.659,157.492,183.958,157.492,182.257Zm3.485,3.822H166v-7.6h-5.025Z" transform="translate(-134.194 -149.113)" fill="#e83f40"/>
      <path id="Caminho_173" data-name="Caminho 173" d="M49.842,57.151c0-1.75-.009-3.5,0-5.251.009-1.393.645-2.02,2.047-2.025q3.956-.011,7.912,0a1.8,1.8,0,0,1,2.034,2.056q.018,5.214,0,10.428c0,1.411-.672,2.057-2.1,2.062q-3.918.011-7.838,0c-1.432,0-2.049-.638-2.055-2.093C49.836,60.6,49.842,58.877,49.842,57.151Zm3.477-3.831v7.628H58.36V53.32Z" transform="translate(-42.467 -42.492)" fill="#e83f40"/>
      <path id="Caminho_174" data-name="Caminho 174" d="M277.189,57.126c0,1.75.007,3.5,0,5.251-.007,1.438-.635,2.059-2.084,2.063q-3.918.011-7.838,0a1.819,1.819,0,0,1-2.072-2.091q-.013-5.176,0-10.354c0-1.458.661-2.1,2.139-2.1q3.883-.009,7.764,0c1.476,0,2.087.627,2.093,2.13C277.195,53.724,277.189,55.425,277.189,57.126Zm-3.47,3.856V53.354h-5.051v7.628Z" transform="translate(-225.961 -42.511)" fill="#e83f40"/>
      <path id="Caminho_175" data-name="Caminho 175" d="M49.843,182.251c0-1.726-.007-3.451,0-5.177.007-1.447.638-2.083,2.066-2.086q3.918-.011,7.838,0a1.827,1.827,0,0,1,2.09,2.081q.016,5.214,0,10.428a1.8,1.8,0,0,1-2.046,2.043q-3.956.02-7.912,0c-1.4-.007-2.026-.637-2.035-2.037C49.836,185.752,49.843,184,49.843,182.251Zm8.532-3.787H53.312v7.6h5.063Z" transform="translate(-42.468 -149.1)" fill="#e83f40"/>
      <path id="Caminho_176" data-name="Caminho 176" d="M277.182,182.313c0,1.726.007,3.451,0,5.177-.009,1.405-.627,2.038-2.028,2.044q-3.956.02-7.912,0a1.8,1.8,0,0,1-2.053-2.034q-.018-5.249,0-10.5a1.791,1.791,0,0,1,2.006-2.013q3.994-.016,7.986,0a1.768,1.768,0,0,1,2,2C277.193,178.763,277.182,180.538,277.182,182.313Zm-3.446-3.849h-5.063v7.584h5.063Z" transform="translate(-225.954 -149.096)" fill="#e83f40"/>
      <path id="Caminho_177" data-name="Caminho 177" d="M49.843,307.364c0-1.726-.007-3.451,0-5.177.007-1.438.643-2.08,2.074-2.083q3.918-.011,7.838,0a1.833,1.833,0,0,1,2.083,2.094q.013,5.176,0,10.354c0,1.463-.649,2.108-2.128,2.115q-3.883.018-7.764,0c-1.5-.007-2.1-.624-2.1-2.126C49.839,310.815,49.843,309.089,49.843,307.364Zm8.524,3.834v-7.632H53.322V311.2Z" transform="translate(-42.468 -255.71)" fill="#e83f40"/>
    </g>
    <text id="Apartamento" transform="translate(0 98.035)" fill="#e83f40" font-size="14" font-family="Montserrat-SemiBold, Montserrat" font-weight="600"><tspan x="0" y="0">Apartamento</tspan></text>
  </g>
</svg>
