<svg xmlns="http://www.w3.org/2000/svg" width="58.472" height="44.976" viewBox="0 0 58.472 44.976">
  <g id="Grupo_91" data-name="Grupo 91" transform="translate(-0.008)">
    <path id="Caminho_148" data-name="Caminho 148" d="M29.2,44.975H4.259c-2.735,0-4.251-1.506-4.251-4.222q0-14.61,0-29.22a3.729,3.729,0,0,1,2.9-3.915,5.259,5.259,0,0,1,1.244-.105q4.851-.012,9.7,0a.612.612,0,0,0,.7-.475c.626-1.733,1.282-3.454,1.93-5.178A2.448,2.448,0,0,1,19.2,0H39.285A2.448,2.448,0,0,1,41.99,1.879C42.63,3.585,43.278,5.289,43.9,7a.651.651,0,0,0,.727.515c3.234-.019,6.469.045,9.7-.029a3.95,3.95,0,0,1,4.153,4.173c-.047,9.7-.019,19.4-.019,29.106,0,2.686-1.522,4.206-4.21,4.206Q41.722,44.977,29.2,44.975ZM14.991,26.211A14.241,14.241,0,1,0,29.258,12,14.281,14.281,0,0,0,14.991,26.211Z" transform="translate(0)" fill="#233857"/>
    <path id="Caminho_149" data-name="Caminho 149" d="M180.507,144.558A9.734,9.734,0,1,1,170.8,154.3,9.735,9.735,0,0,1,180.507,144.558Z" transform="translate(-151.297 -128.058)" fill="#233857"/>
  </g>
</svg>
