<svg xmlns="http://www.w3.org/2000/svg" width="46.393" height="46" viewBox="0 0 46.393 46">
  <g id="Grupo_90" data-name="Grupo 90" transform="translate(-0.002 0)">
    <path id="Caminho_140" data-name="Caminho 140" d="M36.094,3.917l1.179-1.7a1.565,1.565,0,0,1,.263-.366c.2-.156.443-.386.65-.369.166.013.372.323.445.54.217.641.378,1.3.559,1.954q.539,1.938,1.075,3.875c.29,1.046-.1,1.569-1.187,1.659-1.894.157-3.785.339-5.678.505-.352.031-.769.165-1-.209s.1-.678.294-.97c.407-.612.832-1.213,1.26-1.835a18.366,18.366,0,0,0-4.118-2.1A19.459,19.459,0,0,0,9.218,9.672,18.954,18.954,0,0,0,4.063,19.741,19.188,19.188,0,0,0,4.642,28.9a19.435,19.435,0,0,0,15.02,13.391,1.822,1.822,0,0,1,1.559,1.445,1.759,1.759,0,0,1-.653,1.855,1.864,1.864,0,0,1-1.619.359A22.977,22.977,0,0,1,7.307,40.021,22.582,22.582,0,0,1,.7,28.7,22.62,22.62,0,0,1,1.948,13.926a22.708,22.708,0,0,1,8.88-10.345,23.144,23.144,0,0,1,24.529-.129C35.587,3.593,35.815,3.741,36.094,3.917Z" transform="translate(0)" fill="#233857"/>
    <path id="Caminho_141" data-name="Caminho 141" d="M226.849,98.59c0-2.4,0-4.8,0-7.2a1.5,1.5,0,1,1,3-.156c.008.15,0,.3,0,.453,0,4.1.005,8.209-.009,12.312a.651.651,0,0,0,.424.681q5.75,2.952,11.486,5.934a1.509,1.509,0,0,1,.971,1.78,1.492,1.492,0,0,1-1.922,1.084,3.671,3.671,0,0,1-.535-.24q-6.507-3.361-13.015-6.718a.657.657,0,0,1-.417-.691C226.857,103.419,226.849,101,226.849,98.59Z" transform="translate(-206.303 -81.657)" fill="#233857"/>
    <path id="Caminho_142" data-name="Caminho 142" d="M417.411,375.78a1.934,1.934,0,0,1,1.655,2.865,8.3,8.3,0,0,1-1.181,1.477,1.841,1.841,0,0,1-2.858-2.245,7.888,7.888,0,0,1,1.246-1.539A4.2,4.2,0,0,1,417.411,375.78Z" transform="translate(-377.235 -341.763)" fill="#233857"/>
    <path id="Caminho_143" data-name="Caminho 143" d="M281.192,463.97a1.944,1.944,0,0,1,2.09,1.514,1.805,1.805,0,0,1-1.168,2.058,9.364,9.364,0,0,1-1.8.4,1.808,1.808,0,0,1-1.932-1.422,1.785,1.785,0,0,1,1.058-2.109A14.8,14.8,0,0,1,281.192,463.97Z" transform="translate(-253.131 -421.97)" fill="#233857"/>
    <path id="Caminho_144" data-name="Caminho 144" d="M459.74,307.6a5.8,5.8,0,0,1-.843,2.231,1.787,1.787,0,0,1-2.154.547,1.76,1.76,0,0,1-1.1-1.965,9.051,9.051,0,0,1,.639-1.872,1.794,1.794,0,0,1,2.074-.9A1.911,1.911,0,0,1,459.74,307.6Z" transform="translate(-414.359 -277.916)" fill="#233857"/>
    <path id="Caminho_145" data-name="Caminho 145" d="M456.411,152.9a1.729,1.729,0,0,1-1.558-1.127,13.422,13.422,0,0,1-.518-1.443,1.832,1.832,0,0,1,1.08-2.221,1.793,1.793,0,0,1,2.292.807,8.187,8.187,0,0,1,.677,1.859A1.844,1.844,0,0,1,456.411,152.9Z" transform="translate(-413.137 -134.579)" fill="#233857"/>
    <path id="Caminho_146" data-name="Caminho 146" d="M474.686,228.76a7.836,7.836,0,0,1-.119,1.116,1.812,1.812,0,0,1-1.9,1.35,1.835,1.835,0,0,1-1.723-1.722c-.026-.465-.031-.934-.019-1.4a1.86,1.86,0,0,1,1.838-1.894,1.886,1.886,0,0,1,1.88,1.867c.012.225,0,.452,0,.678Z" transform="translate(-428.291 -205.732)" fill="#233857"/>
    <path id="Caminho_147" data-name="Caminho 147" d="M355.443,435.988a1.932,1.932,0,0,1-1.977-1.169,1.784,1.784,0,0,1,.535-2.08,10.346,10.346,0,0,1,1.57-.975,1.8,1.8,0,0,1,2.1.453,1.759,1.759,0,0,1,.244,2.134A4.34,4.34,0,0,1,355.443,435.988Z" transform="translate(-321.348 -392.526)" fill="#233857"/>
  </g>
</svg>
