<svg xmlns="http://www.w3.org/2000/svg" width="59.728" height="71.845" viewBox="0 0 59.728 71.845">
  <g id="Grupo_164" data-name="Grupo 164" transform="translate(-580.839 -1251.799)">
    <path id="Caminho_170" data-name="Caminho 170" d="M29.867,71.845h0L9.875,53.261C-10.036,34.751,2.069.445,29.253,0c.206,0,.408,0,.614,0s.413,0,.614,0C57.665.445,69.77,34.751,49.858,53.261Z" transform="translate(580.836 1251.799)" fill="#e83f40"/>
    <path id="Caminho_171" data-name="Caminho 171" d="M37,14.34A23.523,23.523,0,0,0,24.126,57.567V35.236l10.005-2.152.338,11.271.309-11.177,3.83,1.674.361,19.434L39.3,34.421l-4.81-2.129-1.317.286V27.6l16.733,3.183V57.549A23.521,23.521,0,0,0,37,14.34" transform="translate(573.693 1244.182)" fill="#fff"/>
  </g>
</svg>
