<svg xmlns="http://www.w3.org/2000/svg" width="78.484" height="69.247" viewBox="0 0 78.484 69.247">
  <g id="Grupo_194" data-name="Grupo 194" transform="translate(0.008 0.002)">
    <path id="Caminho_274" data-name="Caminho 274" d="M39.912,64.23a48.733,48.733,0,0,1-14.382-2,1.77,1.77,0,0,0-1.2.119C20.312,64.4,16.314,66.5,12.305,68.566a7.222,7.222,0,0,1-1.409.58A2.12,2.12,0,0,1,8.047,67,27.006,27.006,0,0,1,8.7,63.011c.585-2.9,1.217-5.786,1.79-8.686.041-.207-.19-.534-.383-.71A30.527,30.527,0,0,1,3.12,44.585C-1.6,34.937-.97,25.562,4.934,16.641,9.324,10.01,15.6,5.7,22.965,2.922A45.89,45.89,0,0,1,44.942.359C54.186,1.475,62.423,4.911,69.213,11.42A28.551,28.551,0,0,1,78.26,28.863a26.576,26.576,0,0,1-4.6,18.676c-5.042,7.42-12.156,12-20.6,14.659A44.055,44.055,0,0,1,39.912,64.23Zm-.721-25.4a5.847,5.847,0,1,0-5.887-5.8A5.858,5.858,0,0,0,39.191,38.829Zm18.072,0A5.848,5.848,0,1,0,51.4,33.008,5.873,5.873,0,0,0,57.263,38.829Zm-36.221,0a5.846,5.846,0,1,0-5.823-5.846A5.816,5.816,0,0,0,21.042,38.826Z" transform="translate(0)" fill="#182849"/>
  </g>
</svg>
