<svg xmlns="http://www.w3.org/2000/svg" width="34.689" height="51.601" viewBox="0 0 34.689 51.601">
  <g id="Grupo_92" data-name="Grupo 92" transform="translate(-0.008 0.002)">
    <path id="Caminho_150" data-name="Caminho 150" d="M10.811,25.82c-.705-.608-1.42-1.163-2.063-1.791a22.466,22.466,0,0,1-5.183-8.242A34.276,34.276,0,0,1,1.415,5.432a.843.843,0,0,0-.352-.574c-1.372-.848-1.381-1.693.026-2.473A15.071,15.071,0,0,1,5.927.917,71.649,71.649,0,0,1,24.4.327a30.939,30.939,0,0,1,7.937,1.5,7.552,7.552,0,0,1,1.815.945c.732.526.741,1.258-.034,1.717a1.815,1.815,0,0,0-.9,1.7,32.267,32.267,0,0,1-2.658,10.994,20.108,20.108,0,0,1-6.493,8.435,1.9,1.9,0,0,0-.176.161c.706.608,1.42,1.163,2.065,1.791a22.423,22.423,0,0,1,5.183,8.242,34.362,34.362,0,0,1,2.152,10.354.843.843,0,0,0,.352.574c1.371.848,1.38,1.7-.026,2.473a15.1,15.1,0,0,1-4.838,1.468,71.74,71.74,0,0,1-18.469.59,31.038,31.038,0,0,1-7.938-1.494,7.571,7.571,0,0,1-1.815-.945c-.731-.525-.741-1.258.033-1.718a1.817,1.817,0,0,0,.9-1.7A32.157,32.157,0,0,1,4.162,34.37a20.052,20.052,0,0,1,6.472-8.389A2.393,2.393,0,0,0,10.811,25.82ZM30.87,45.71c0-.158.006-.239,0-.319a28.222,28.222,0,0,0-3.252-11.479,14.4,14.4,0,0,0-6.925-6.758,1.373,1.373,0,0,1-.878-1.348,1.431,1.431,0,0,1,.953-1.405,13.763,13.763,0,0,0,6.283-5.748A26.758,26.758,0,0,0,30.64,8.271c.114-.772.177-1.551.264-2.32A71.914,71.914,0,0,1,3.84,5.959c0,.113-.007.212,0,.309A28.667,28.667,0,0,0,6.456,16.441c1.666,3.489,3.925,6.443,7.613,8.031a1.342,1.342,0,0,1,.82,1.333,1.4,1.4,0,0,1-.921,1.374,13.856,13.856,0,0,0-6.374,5.864A26.732,26.732,0,0,0,4.058,43.39c-.108.753-.172,1.513-.264,2.332.466-.1.821-.215,1.185-.257a.674.674,0,0,0,.634-.583,15.287,15.287,0,0,1,2.624-5.005,38.683,38.683,0,0,1,8.806-8.2.481.481,0,0,1,.66.035,41.5,41.5,0,0,1,5.85,4.84C26,39,28.167,41.656,29.168,45.071a.552.552,0,0,0,.319.324C29.92,45.523,30.366,45.6,30.87,45.71Z" transform="translate(0 0)" fill="#182849"/>
    <path id="Caminho_151" data-name="Caminho 151" d="M124.9,119.706c5.95-1.427,11.252-3.714,15.178-8.456-.139,2.074-6.851,10.356-10.5,12.91Z" transform="translate(-112.312 -100.046)" fill="#182849"/>
  </g>
</svg>
