<svg id="Grupo_85" data-name="Grupo 85" xmlns="http://www.w3.org/2000/svg" width="51.306" height="48" viewBox="0 0 51.306 48">
  <path id="Caminho_130" data-name="Caminho 130" d="M111.79,109.017h-2.435c-.595-.106-1.188-.217-1.784-.317a17.543,17.543,0,1,1,19.3-23.645,42.371,42.371,0,0,1,1.266,4.831v2.957a30.136,30.136,0,0,1-1.016,4.358,6.145,6.145,0,0,0-.226,3.927c.47,1.863.833,3.751,1.243,5.628v2.261h-1.913a.76.76,0,0,0-.214-.132q-3.822-.767-7.645-1.522a1.14,1.14,0,0,0-.5.014C115.837,107.918,113.814,108.47,111.79,109.017Z" transform="translate(-76.833 -61.017)" fill="#182849"/>
  <path id="Caminho_131" data-name="Caminho 131" d="M19.13,0a41.625,41.625,0,0,1,4.442,1.071A17.338,17.338,0,0,1,33.4,9.826a20.237,20.237,0,0,0-15.682,7.755,20.364,20.364,0,0,0-4.106,17.132c-1.03-.36-1.9-.7-2.8-.965A3.208,3.208,0,0,0,9.4,33.6c-2.358.426-4.715.864-7.049,1.4A1.931,1.931,0,0,1,0,34.087v-.87c.414-1.972.838-3.941,1.237-5.917a6.388,6.388,0,0,0,.339-2.36C1.167,22.979.541,21.064,0,19.13V16a2.308,2.308,0,0,0,.136-.4C1.193,8.343,5.209,3.468,12.056.948A32.106,32.106,0,0,1,16.174,0Z" fill="#182849"/>
</svg>
