<svg xmlns="http://www.w3.org/2000/svg" width="26.045" height="21.139" viewBox="0 0 26.045 21.139">
  <path id="Caminho_173" data-name="Caminho 173" d="M2.11,9.352V8.905c0-1.712-.007-3.425,0-5.136C2.121,1.863,3,.4,4.345.069A2.512,2.512,0,0,1,4.952.014C10.331.011,15.71.03,21.089,0a3.1,3.1,0,0,1,2.78,2.923,6.993,6.993,0,0,1,.057.953c.006,1.678,0,3.355,0,5.034v.418c.166.019.308.027.448.053a2.3,2.3,0,0,1,1.65,2.453q.029,1.848,0,3.7c-.021,1.465-.819,2.483-1.939,2.5-.627.01-1.254,0-1.88,0H21.9c0,.654,0,1.279,0,1.9a4.5,4.5,0,0,1-.025.544c-.055.424-.281.671-.58.657s-.535-.313-.548-.752c-.015-.524-.006-1.05-.006-1.575,0-.239,0-.478,0-.746H5.3c0,.687,0,1.369,0,2.051a2.56,2.56,0,0,1-.033.474c-.069.353-.3.565-.573.548a.6.6,0,0,1-.515-.593c-.037-.394-.033-.795-.038-1.193-.006-.421,0-.843,0-1.316-.113,0-.211,0-.309,0-.72-.011-1.442.031-2.158-.047C.713,17.882.042,16.9.015,15.6q-.04-1.9,0-3.8C.043,10.412.8,9.432,1.84,9.353,1.916,9.348,1.991,9.352,2.11,9.352Zm10.906,1.565h-11c-.6,0-.843.332-.844,1.143q0,1.678,0,3.356c0,.693.27,1.052.785,1.052q11.067,0,22.135,0c.513,0,.778-.362.78-1.06,0-1.107,0-2.214,0-3.321,0-.856-.235-1.17-.875-1.17Zm.4-1.585c0-.459,0-.89,0-1.322,0-1.314.532-2.027,1.509-2.027,1.855,0,3.71.03,5.564-.014.906-.021,1.6.8,1.537,2.075-.021.427,0,.858,0,1.277h.748V8.954q0-2.533,0-5.067c0-1.466-.631-2.325-1.716-2.326q-8.041,0-16.083,0c-1.068,0-1.7.865-1.7,2.305q0,2.568,0,5.135v.32h.748c0-.471,0-.915,0-1.359,0-1.249.542-1.978,1.467-1.98q2.833-.005,5.666,0c.928,0,1.468.728,1.474,1.971,0,.453,0,.906,0,1.377Zm-8.243,0h6.294c0-.446,0-.876,0-1.306s-.03-.481-.367-.481H5.537c-.051,0-.115-.025-.149.008-.079.075-.2.172-.2.269C5.163,8.318,5.174,8.817,5.174,9.333Zm9.4,0h6.262a.328.328,0,0,0,.025-.077c0-.365.008-.73.008-1.095,0-.615,0-.615-.444-.615H16.155c-.432,0-.864.008-1.3,0-.205,0-.294.108-.291.384C14.575,8.382,14.571,8.838,14.571,9.332Z" transform="translate(0.005 0)" fill="#e63d41"/>
</svg>
