<svg xmlns="http://www.w3.org/2000/svg" width="25.18" height="22.206" viewBox="0 0 25.18 22.206">
  <g id="Grupo_172" data-name="Grupo 172" transform="translate(-0.006 -0.004)">
    <path id="Caminho_172" data-name="Caminho 172" d="M4.5,12H4.192q-1.66,0-3.32,0a.769.769,0,0,1-.811-.473.776.776,0,0,1,.287-.916Q6.172,5.444,12,.282a.8.8,0,0,1,1.216.011q1.455,1.288,2.907,2.578c.065.058.132.114.235.2.006-.126.014-.2.014-.283,0-.344-.006-.689,0-1.033a.716.716,0,0,1,.75-.742q1.488-.012,2.976,0a.731.731,0,0,1,.764.806q0,2.508,0,5.017a.474.474,0,0,0,.178.4c1.267,1.115,2.528,2.239,3.793,3.358a.814.814,0,0,1,.344.768.745.745,0,0,1-.808.635c-1.123,0-2.246,0-3.369,0h-.3v.332q0,4.427,0,8.854a2.576,2.576,0,0,1-.016.343.725.725,0,0,1-.759.654.738.738,0,0,1-.725-.7c-.007-.082,0-.164,0-.246V11.451c0-.689.258-.946.95-.946h2.3c-.094-.094-.15-.155-.211-.209-.8-.707-1.586-1.425-2.4-2.115A1.231,1.231,0,0,1,19.36,7.14c.021-1.434.008-2.869.008-4.3V2.525h-1.5v1.3c0,.3,0,.59,0,.885a.734.734,0,0,1-.452.726.747.747,0,0,1-.841-.163l-2.5-2.218L12.6,1.755,2.755,10.482c.1.011.161.024.218.024.7,0,1.41,0,2.115,0,.643,0,.914.269.917.906,0,.073,0,.147,0,.259h6.346a2.174,2.174,0,0,1,.294.014.366.366,0,0,1,.347.379.374.374,0,0,1-.324.4,1.193,1.193,0,0,1-.269.014H6.02v.807H9.108c.074,0,.148,0,.221,0,.272.025.428.181.422.415a.4.4,0,0,1-.443.394c-.771.006-1.541,0-2.312,0H6.022V14.9c.081,0,.166.012.252.013H9.053c.058,0,.115,0,.172,0,.349.007.529.15.526.414s-.185.4-.537.4H6.024v.8h.3q3.025,0,6.05,0a1.515,1.515,0,0,1,.317.027.36.36,0,0,1,.305.364.366.366,0,0,1-.295.4,1.254,1.254,0,0,1-.316.027q-3.025,0-6.05,0H6.022v.8H9.1c.065,0,.131,0,.2,0,.289.02.454.174.45.415s-.175.4-.465.4c-.894.006-1.787,0-2.681,0H6.023v.8h.251q1.439,0,2.877,0a1.274,1.274,0,0,1,.315.033.391.391,0,0,1,.014.748,1.144,1.144,0,0,1-.315.036c-1.041,0-2.081,0-3.142,0v.8H6.3q3.037,0,6.075,0a1.308,1.308,0,0,1,.34.034.391.391,0,0,1-.014.754,1.516,1.516,0,0,1-.341.03q-3.431,0-6.862,0c-.691,0-.994-.3-.994-.983q0-4.438,0-8.878Z" transform="translate(0 0)" fill="#e63d41"/>
  </g>
</svg>
