<svg xmlns="http://www.w3.org/2000/svg" width="63.962" height="64.025" viewBox="0 0 63.962 64.025">
  <g id="Grupo_89" data-name="Grupo 89" transform="translate(-0.003)">
    <path id="Caminho_136" data-name="Caminho 136" d="M30.688,0h2.559a6.033,6.033,0,0,0,.628.095,30.389,30.389,0,0,1,6.1.943,31,31,0,0,1,15.284,9.045,31.414,31.414,0,0,1,8.489,25.8,30.616,30.616,0,0,1-4.219,12.464A31.931,31.931,0,0,1,28.77,63.867a30.4,30.4,0,0,1-17.541-7.5C2.294,48.489-1.315,38.554.431,26.778a30.474,30.474,0,0,1,9.3-17.746A31.4,31.4,0,0,1,27.832.3C28.781.172,29.736.1,30.688,0Zm1.281,47.819c0,.08,0,.161.005.241,3.722-.177,7.448-.306,11.166-.547,2.67-.174,5.331-.5,8-.753.356-.034.532-.165.546-.559a15.367,15.367,0,0,0-2-8.116,18.05,18.05,0,0,0-6.126-6.47c-.325-.211-.586-.369-.391-.874a11.886,11.886,0,0,0-.1-9.03,12.05,12.05,0,0,0-13.314-7.158,12.045,12.045,0,0,0-9,16.14.63.63,0,0,1-.311.9,17.623,17.623,0,0,0-3.859,3.248,16.128,16.128,0,0,0-4.324,11.3c.006.443.185.585.595.62.777.066,1.549.189,2.326.257,3.109.272,6.216.612,9.332.771C26.991,47.921,29.484,47.819,31.969,47.819Z" fill="#dedede"/>
    <path id="Caminho_137" data-name="Caminho 137" d="M134.663,167.9c-2.487,0-4.978.1-7.459-.026-3.116-.159-6.222-.5-9.332-.771-.777-.068-1.549-.191-2.326-.257-.409-.035-.587-.177-.595-.62a16.128,16.128,0,0,1,4.324-11.3,17.623,17.623,0,0,1,3.859-3.248.629.629,0,0,0,.311-.9,12.045,12.045,0,0,1,9-16.14,12.051,12.051,0,0,1,13.314,7.158,11.885,11.885,0,0,1,.1,9.03c-.2.505.066.663.391.874a18.067,18.067,0,0,1,6.126,6.47,15.379,15.379,0,0,1,2,8.116c-.014.393-.19.526-.546.559-2.666.253-5.327.579-8,.753-3.718.242-7.444.37-11.166.547C134.667,168.062,134.665,167.983,134.663,167.9Zm-.015-31.022a9.584,9.584,0,0,0-.009,19.168,9.584,9.584,0,1,0,.009-19.168Zm.813,28.823c3.4-.173,7.6-.37,11.795-.609,1.379-.079,2.752-.274,4.13-.4.348-.032.54-.151.471-.529-.026-.14-.059-.278-.081-.418-.722-4.452-3.246-7.662-6.934-10.072a.418.418,0,0,0-.642.1c-.23.293-.465.585-.723.854a11.77,11.77,0,0,1-11.2,3.6,11.472,11.472,0,0,1-7.085-4.389c-.247-.314-.463-.336-.757-.13-.392.274-.792.54-1.173.83a14.41,14.41,0,0,0-5.766,9.375c-.1.622-.047.722.58.774,3.039.252,6.077.536,9.122.722C129.68,165.565,132.167,165.593,135.461,165.7Z" transform="translate(-102.694 -120.082)" fill="#3382a6"/>
    <path id="Caminho_138" data-name="Caminho 138" d="M219.53,157.58a9.584,9.584,0,1,1-9.57,9.6A9.615,9.615,0,0,1,219.53,157.58Z" transform="translate(-187.575 -140.782)" fill="#dedede"/>
    <path id="Caminho_139" data-name="Caminho 139" d="M156.474,326.264c-3.295-.11-5.782-.136-8.261-.288-3.043-.186-6.081-.47-9.122-.722-.627-.052-.684-.151-.58-.774a14.41,14.41,0,0,1,5.766-9.375c.382-.289.78-.555,1.173-.83.293-.2.508-.183.757.13a11.472,11.472,0,0,0,7.086,4.389,11.769,11.769,0,0,0,11.2-3.6c.257-.269.492-.561.723-.854a.418.418,0,0,1,.642-.1c3.688,2.41,6.213,5.621,6.934,10.072.022.14.055.278.081.418.068.377-.124.5-.471.529-1.377.127-2.749.323-4.13.4C164.07,325.894,159.869,326.091,156.474,326.264Z" transform="translate(-123.706 -280.644)" fill="#dedede"/>
  </g>
</svg>
